<svg width="177" height="47" viewBox="0 0 177 47" fill="none" xmlns="http://www.w3.org/2000/svg">
<path d="M49.071 35.3835C47.1023 35.3835 45.402 34.9744 43.9702 34.1562C42.5469 33.3295 41.4517 32.1619 40.6847 30.6534C39.9176 29.1364 39.5341 27.3509 39.5341 25.2969C39.5341 23.277 39.9176 21.5043 40.6847 19.9787C41.4602 18.4446 42.5426 17.2514 43.9318 16.3991C45.321 15.5384 46.9531 15.108 48.8281 15.108C50.0384 15.108 51.1804 15.304 52.2543 15.696C53.3366 16.0795 54.2912 16.6761 55.1179 17.4858C55.9531 18.2955 56.6094 19.3267 57.0866 20.5795C57.5639 21.8239 57.8026 23.3068 57.8026 25.0284V26.4474H41.7074V23.3281H53.3665C53.358 22.4418 53.1662 21.6534 52.7912 20.9631C52.4162 20.2642 51.892 19.7145 51.2188 19.3139C50.554 18.9134 49.7784 18.7131 48.892 18.7131C47.946 18.7131 47.1151 18.9432 46.3991 19.4034C45.6832 19.8551 45.125 20.4517 44.7244 21.1932C44.3324 21.9261 44.1321 22.7315 44.1236 23.6094V26.3324C44.1236 27.4744 44.3324 28.4545 44.75 29.2727C45.1676 30.0824 45.7514 30.7045 46.5014 31.1392C47.2514 31.5653 48.1293 31.7784 49.1349 31.7784C49.8082 31.7784 50.4176 31.6847 50.9631 31.4972C51.5085 31.3011 51.9815 31.0156 52.3821 30.6406C52.7827 30.2656 53.0852 29.8011 53.2898 29.2472L57.6108 29.733C57.3381 30.875 56.8182 31.8722 56.0511 32.7244C55.2926 33.5682 54.321 34.2244 53.1364 34.6932C51.9517 35.1534 50.5966 35.3835 49.071 35.3835ZM61.7177 35V15.3636H66.141V18.7003H66.3711C66.7802 17.5753 67.4577 16.6974 68.4038 16.0668C69.3498 15.4276 70.479 15.108 71.7915 15.108C73.1211 15.108 74.2418 15.4318 75.1538 16.0795C76.0742 16.7187 76.7219 17.5923 77.0969 18.7003H77.3015C77.7362 17.6094 78.4691 16.7401 79.5004 16.0923C80.5401 15.4361 81.7717 15.108 83.195 15.108C85.0018 15.108 86.4762 15.679 87.6183 16.821C88.7603 17.9631 89.3313 19.6293 89.3313 21.8196V35H84.6907V22.5355C84.6907 21.3168 84.3668 20.4261 83.7191 19.8636C83.0714 19.2926 82.2788 19.0071 81.3413 19.0071C80.2248 19.0071 79.3512 19.3565 78.7205 20.0554C78.0984 20.7457 77.7873 21.6449 77.7873 22.7528V35H73.2489V22.3438C73.2489 21.3295 72.9421 20.5199 72.3285 19.9148C71.7234 19.3097 70.9308 19.0071 69.9506 19.0071C69.2859 19.0071 68.6808 19.1776 68.1353 19.5185C67.5898 19.8509 67.1552 20.3239 66.8313 20.9375C66.5075 21.5426 66.3455 22.25 66.3455 23.0597V35H61.7177ZM101.313 35.3452C99.7706 35.3452 98.3899 34.9489 97.1712 34.1562C95.9524 33.3636 94.9893 32.2131 94.282 30.7045C93.5746 29.196 93.2209 27.3636 93.2209 25.2074C93.2209 23.0256 93.5788 21.1847 94.2947 19.6847C95.0192 18.1761 95.995 17.0384 97.2223 16.2713C98.4496 15.4957 99.8175 15.108 101.326 15.108C102.477 15.108 103.423 15.304 104.164 15.696C104.906 16.0795 105.494 16.544 105.928 17.0895C106.363 17.6264 106.7 18.1335 106.938 18.6108H107.13V8.81818H111.771V35H107.219V31.9062H106.938C106.7 32.3835 106.354 32.8906 105.903 33.4276C105.451 33.956 104.854 34.4077 104.113 34.7827C103.371 35.1577 102.438 35.3452 101.313 35.3452ZM102.604 31.5483C103.585 31.5483 104.42 31.2841 105.11 30.7557C105.8 30.2187 106.325 29.473 106.683 28.5185C107.04 27.5639 107.219 26.4517 107.219 25.1818C107.219 23.9119 107.04 22.8082 106.683 21.8707C106.333 20.9332 105.813 20.2045 105.123 19.6847C104.441 19.1648 103.602 18.9048 102.604 18.9048C101.573 18.9048 100.712 19.1733 100.022 19.7102C99.3317 20.2472 98.8118 20.9886 98.4624 21.9347C98.1129 22.8807 97.9382 23.9631 97.9382 25.1818C97.9382 26.4091 98.1129 27.5043 98.4624 28.4673C98.8203 29.4219 99.3445 30.1761 100.035 30.7301C100.734 31.2756 101.59 31.5483 102.604 31.5483ZM122.353 35.3963C121.108 35.3963 119.988 35.1747 118.99 34.7315C118.002 34.2798 117.218 33.6151 116.638 32.7372C116.067 31.8594 115.782 30.777 115.782 29.4901C115.782 28.3821 115.986 27.4659 116.395 26.7415C116.804 26.017 117.363 25.4375 118.07 25.0028C118.777 24.5682 119.574 24.2401 120.461 24.0185C121.355 23.7884 122.28 23.6222 123.235 23.5199C124.385 23.4006 125.319 23.294 126.034 23.2003C126.75 23.098 127.27 22.9446 127.594 22.7401C127.926 22.527 128.093 22.1989 128.093 21.7557V21.679C128.093 20.7159 127.807 19.9702 127.236 19.4418C126.665 18.9134 125.843 18.6491 124.769 18.6491C123.635 18.6491 122.736 18.8963 122.071 19.3906C121.415 19.8849 120.972 20.4687 120.742 21.142L116.421 20.5284C116.762 19.3352 117.324 18.3381 118.108 17.5369C118.892 16.7273 119.851 16.1222 120.985 15.7216C122.118 15.3125 123.371 15.108 124.743 15.108C125.689 15.108 126.631 15.2188 127.569 15.4403C128.506 15.6619 129.363 16.0284 130.138 16.5398C130.914 17.0426 131.536 17.7287 132.005 18.598C132.482 19.4673 132.721 20.554 132.721 21.858V35H128.272V32.3026H128.118C127.837 32.848 127.441 33.3594 126.929 33.8366C126.426 34.3054 125.792 34.6847 125.025 34.9744C124.266 35.2557 123.375 35.3963 122.353 35.3963ZM123.554 31.9957C124.483 31.9957 125.289 31.8125 125.971 31.446C126.652 31.071 127.176 30.5767 127.543 29.9631C127.918 29.3494 128.105 28.6804 128.105 27.956V25.642C127.961 25.7614 127.713 25.8722 127.364 25.9744C127.023 26.0767 126.64 26.1662 126.213 26.2429C125.787 26.3196 125.365 26.3878 124.948 26.4474C124.53 26.5071 124.168 26.5582 123.861 26.6009C123.171 26.6946 122.553 26.848 122.007 27.0611C121.462 27.2741 121.032 27.5724 120.716 27.956C120.401 28.331 120.243 28.8168 120.243 29.4134C120.243 30.2656 120.554 30.9091 121.176 31.3438C121.799 31.7784 122.591 31.9957 123.554 31.9957ZM152.894 20.554L148.675 21.0142C148.556 20.5881 148.347 20.1875 148.049 19.8125C147.759 19.4375 147.367 19.1349 146.873 18.9048C146.378 18.6747 145.773 18.5597 145.057 18.5597C144.094 18.5597 143.284 18.7685 142.628 19.1861C141.98 19.6037 141.661 20.1449 141.669 20.8097C141.661 21.3807 141.87 21.8452 142.296 22.2031C142.73 22.5611 143.446 22.8551 144.444 23.0852L147.793 23.8011C149.651 24.2017 151.032 24.8366 151.935 25.706C152.847 26.5753 153.307 27.7131 153.316 29.1193C153.307 30.3551 152.945 31.446 152.229 32.392C151.522 33.3295 150.537 34.0625 149.276 34.5909C148.015 35.1193 146.566 35.3835 144.929 35.3835C142.526 35.3835 140.591 34.8807 139.125 33.875C137.659 32.8608 136.786 31.4503 136.505 29.6435L141.017 29.2088C141.222 30.0952 141.657 30.7642 142.321 31.2159C142.986 31.6676 143.851 31.8935 144.917 31.8935C146.016 31.8935 146.898 31.6676 147.563 31.2159C148.236 30.7642 148.573 30.206 148.573 29.5412C148.573 28.9787 148.355 28.5142 147.921 28.1477C147.495 27.7812 146.83 27.5 145.926 27.304L142.577 26.6009C140.694 26.2088 139.3 25.5483 138.397 24.6193C137.493 23.6818 137.046 22.4972 137.054 21.0653C137.046 19.8551 137.374 18.8068 138.039 17.9205C138.712 17.0256 139.645 16.3352 140.838 15.8494C142.04 15.3551 143.425 15.108 144.993 15.108C147.294 15.108 149.105 15.598 150.426 16.5781C151.756 17.5582 152.578 18.8835 152.894 20.554ZM161.76 23.4943V35H157.132V8.81818H161.657V18.7003H161.887C162.348 17.5923 163.059 16.7187 164.022 16.0795C164.994 15.4318 166.23 15.108 167.73 15.108C169.093 15.108 170.282 15.3935 171.297 15.9645C172.311 16.5355 173.095 17.3707 173.649 18.4702C174.211 19.5696 174.493 20.9119 174.493 22.4972V35H169.865V23.2131C169.865 21.892 169.524 20.8651 168.842 20.1321C168.169 19.3906 167.223 19.0199 166.004 19.0199C165.186 19.0199 164.453 19.1989 163.805 19.5568C163.166 19.9062 162.663 20.4134 162.297 21.0781C161.939 21.7429 161.76 22.5483 161.76 23.4943Z" fill="black"/>
<path d="M0 24H30V28H0V24Z" fill="#1D1D1D"/>
</svg>
